<svg xmlns="http://www.w3.org/2000/svg" xmlns:xlink="http://www.w3.org/1999/xlink" width="1200" zoomAndPan="magnify" viewBox="0 0 900 299.999988" height="400" preserveAspectRatio="xMidYMid meet" version="1.0"><defs><clipPath id="id1"><path d="M 15.636719 0 L 884.136719 0 L 884.136719 300 L 15.636719 300 Z M 15.636719 0 " clip-rule="nonzero"/></clipPath><clipPath id="id2"><path d="M 81.714844 104.722656 L 123.402344 104.722656 L 123.402344 160.171875 L 81.714844 160.171875 Z M 81.714844 104.722656 " clip-rule="nonzero"/></clipPath></defs><g clip-path="url(#id1)"><rect x="-90" width="1080" fill="#ffffff" y="-29.999999" height="359.999986" fill-opacity="1"/><rect x="-90" width="1080" fill="#ffffff" y="-29.999999" height="359.999986" fill-opacity="1"/><rect x="-90" width="1080" fill="#ffffff" y="-29.999999" height="359.999986" fill-opacity="1"/><rect x="-90" width="1080" fill="#ffffff" y="-29.999999" height="359.999986" fill-opacity="1"/></g><g clip-path="url(#id2)"><path fill="#f4f4f4" d="M 123.257812 147.851562 L 116.445312 122.09375 C 116.398438 121.929688 116.328125 121.769531 116.21875 121.625 L 103.652344 105.320312 C 103.199219 104.734375 102.339844 104.617188 101.734375 105.066406 C 101.644531 105.140625 101.554688 105.222656 101.480469 105.3125 L 88.769531 121.625 C 88.652344 121.757812 88.570312 121.929688 88.527344 122.101562 L 81.867188 147.859375 C 81.722656 148.449219 81.996094 149.070312 82.527344 149.363281 L 101.898438 159.910156 C 102.3125 160.136719 102.8125 160.136719 103.226562 159.910156 L 122.597656 149.363281 C 123.140625 149.0625 123.410156 148.449219 123.257812 147.851562 Z M 118.410156 140.1875 L 113.214844 132.117188 L 114.953125 127.105469 Z M 103.933594 110.125 L 113.597656 122.671875 L 111.34375 129.195312 L 103.933594 117.660156 Z M 102.566406 120.566406 L 110.210938 132.460938 L 105.238281 146.855469 L 99.84375 146.855469 L 99.84375 146.847656 L 94.851562 132.570312 Z M 101.203125 110.089844 L 101.203125 117.660156 L 93.710938 129.324219 L 91.386719 122.671875 Z M 90.054688 127.125 L 91.839844 132.226562 L 86.636719 140.324219 Z M 92.976562 135.484375 L 96.957031 146.847656 L 85.667969 146.847656 Z M 88.472656 149.535156 L 97.898438 149.535156 L 100.117188 155.875 Z M 102.558594 154.589844 L 100.785156 149.535156 L 104.3125 149.535156 Z M 104.992188 155.882812 L 107.191406 149.535156 L 116.664062 149.535156 Z M 108.121094 146.855469 L 112.085938 135.382812 L 119.457031 146.855469 Z M 108.121094 146.855469 " fill-opacity="1" fill-rule="nonzero"/></g><path fill="#f4f4f4" d="M 273.078125 191.644531 L 276.734375 191.644531 L 276.734375 209.125 L 273.078125 209.125 Z M 273.078125 191.644531 " fill-opacity="1" fill-rule="nonzero"/><path fill="#f4f4f4" d="M 309.238281 209.125 L 309.238281 201.597656 C 309.238281 199.238281 308.441406 198.050781 306.847656 198.050781 C 306 198.050781 305.3125 198.414062 304.785156 199.136719 C 304.277344 199.859375 304.027344 200.792969 304.027344 201.921875 L 304.027344 209.125 L 300.550781 209.125 L 300.550781 198.703125 C 300.550781 197.980469 300.535156 197.390625 300.515625 196.929688 C 300.488281 196.476562 300.460938 196.0625 300.441406 195.699219 L 303.773438 195.699219 C 303.789062 195.871094 303.828125 196.296875 303.882812 196.964844 C 303.925781 197.644531 303.953125 198.113281 303.953125 198.378906 L 303.988281 198.378906 C 304.46875 197.347656 305.058594 196.59375 305.761719 196.132812 C 306.460938 195.679688 307.300781 195.445312 308.296875 195.445312 C 309.714844 195.445312 310.800781 195.898438 311.554688 196.785156 C 312.320312 197.652344 312.710938 198.9375 312.710938 200.621094 L 312.710938 209.125 Z M 309.238281 209.125 " fill-opacity="1" fill-rule="nonzero"/><path fill="#f4f4f4" d="M 343.726562 209.125 L 339.527344 209.125 L 334.75 195.699219 L 338.441406 195.699219 L 340.757812 203.191406 C 340.875 203.625 341.175781 204.664062 341.664062 206.300781 C 341.734375 205.96875 341.886719 205.378906 342.132812 204.527344 C 342.394531 203.6875 343.363281 200.746094 345.027344 195.699219 L 348.648438 195.699219 Z M 343.726562 209.125 " fill-opacity="1" fill-rule="nonzero"/><path fill="#f4f4f4" d="M 376.382812 209.378906 C 374.359375 209.378906 372.800781 208.789062 371.714844 207.605469 C 370.632812 206.402344 370.089844 204.65625 370.089844 202.359375 C 370.089844 200.140625 370.640625 198.441406 371.753906 197.253906 C 372.855469 196.050781 374.414062 195.445312 376.421875 195.445312 C 378.347656 195.445312 379.824219 196.089844 380.835938 197.363281 C 381.847656 198.648438 382.355469 200.511719 382.355469 202.972656 L 382.355469 203.082031 L 373.777344 203.082031 C 373.777344 204.382812 374.015625 205.378906 374.503906 206.050781 C 374.984375 206.699219 375.671875 207.027344 376.566406 207.027344 C 377.796875 207.027344 378.566406 206.5 378.882812 205.433594 L 382.175781 205.722656 C 381.234375 208.164062 379.296875 209.378906 376.382812 209.378906 Z M 376.382812 197.652344 C 375.5625 197.652344 374.917969 197.941406 374.464844 198.523438 C 374.03125 199.082031 373.796875 199.878906 373.777344 200.910156 L 378.988281 200.910156 C 378.917969 199.824219 378.644531 199.019531 378.195312 198.484375 C 377.761719 197.933594 377.152344 197.652344 376.382812 197.652344 Z M 376.382812 197.652344 " fill-opacity="1" fill-rule="nonzero"/><path fill="#f4f4f4" d="M 416.683594 205.214844 C 416.683594 206.5 416.148438 207.515625 415.089844 208.257812 C 414.023438 209.007812 412.558594 209.378906 410.675781 209.378906 C 408.8125 209.378906 407.390625 209.089844 406.40625 208.507812 C 405.4375 207.929688 404.792969 207.015625 404.488281 205.757812 L 407.527344 205.324219 C 407.71875 205.957031 408.015625 206.402344 408.429688 206.664062 C 408.867188 206.933594 409.609375 207.0625 410.675781 207.0625 C 411.632812 207.0625 412.339844 206.945312 412.773438 206.699219 C 413.226562 206.464844 413.460938 206.074219 413.460938 205.542969 C 413.460938 205.109375 413.28125 204.773438 412.917969 204.527344 C 412.558594 204.265625 411.949219 204.050781 411.109375 203.878906 C 409.128906 203.496094 407.789062 203.136719 407.09375 202.792969 C 406.414062 202.457031 405.898438 202.023438 405.535156 201.488281 C 405.175781 200.964844 404.992188 200.296875 404.992188 199.5 C 404.992188 198.222656 405.480469 197.238281 406.476562 196.53125 C 407.464844 195.808594 408.867188 195.445312 410.675781 195.445312 C 412.285156 195.445312 413.578125 195.761719 414.546875 196.386719 C 415.507812 196.992188 416.113281 197.886719 416.355469 199.066406 L 413.28125 199.390625 C 413.179688 198.839844 412.929688 198.429688 412.519531 198.160156 C 412.132812 197.898438 411.515625 197.761719 410.675781 197.761719 C 409.851562 197.761719 409.238281 197.871094 408.828125 198.085938 C 408.414062 198.304688 408.214844 198.65625 408.214844 199.136719 C 408.214844 199.527344 408.367188 199.84375 408.683594 200.078125 C 408.992188 200.296875 409.527344 200.476562 410.277344 200.621094 C 411.335938 200.835938 412.265625 201.074219 413.0625 201.308594 C 413.878906 201.527344 414.527344 201.796875 415.019531 202.105469 C 415.523438 202.421875 415.921875 202.828125 416.210938 203.335938 C 416.519531 203.824219 416.683594 204.449219 416.683594 205.214844 Z M 416.683594 205.214844 " fill-opacity="1" fill-rule="nonzero"/><path fill="#f4f4f4" d="M 443.265625 209.34375 C 442.222656 209.34375 441.429688 209.070312 440.875 208.507812 C 440.34375 207.957031 440.082031 207.117188 440.082031 205.976562 L 440.082031 198.050781 L 438.378906 198.050781 L 438.378906 195.699219 L 440.226562 195.699219 L 441.3125 192.550781 L 443.519531 192.550781 L 443.519531 195.699219 L 446.050781 195.699219 L 446.050781 198.050781 L 443.519531 198.050781 L 443.519531 205.035156 C 443.519531 205.6875 443.636719 206.175781 443.878906 206.484375 C 444.113281 206.800781 444.503906 206.953125 445.039062 206.953125 C 445.300781 206.953125 445.6875 206.898438 446.195312 206.773438 L 446.195312 208.945312 C 445.34375 209.207031 444.367188 209.34375 443.265625 209.34375 Z M 443.265625 209.34375 " fill-opacity="1" fill-rule="nonzero"/><path fill="#f4f4f4" d="M 476.519531 209.125 L 476.519531 201.597656 C 476.519531 199.238281 475.839844 198.050781 474.492188 198.050781 C 473.789062 198.050781 473.207031 198.414062 472.757812 199.136719 C 472.320312 199.859375 472.105469 200.792969 472.105469 201.921875 L 472.105469 209.125 L 468.632812 209.125 L 468.632812 198.703125 C 468.632812 197.980469 468.613281 197.390625 468.59375 196.929688 C 468.566406 196.476562 468.539062 196.0625 468.523438 195.699219 L 471.851562 195.699219 C 471.871094 195.871094 471.90625 196.296875 471.960938 196.964844 C 472.003906 197.644531 472.03125 198.113281 472.03125 198.378906 L 472.070312 198.378906 C 472.503906 197.347656 473.027344 196.59375 473.660156 196.132812 C 474.3125 195.679688 475.082031 195.445312 475.976562 195.445312 C 478.023438 195.445312 479.269531 196.421875 479.703125 198.378906 L 479.777344 198.378906 C 480.230469 197.347656 480.773438 196.59375 481.40625 196.132812 C 482.054688 195.679688 482.871094 195.445312 483.867188 195.445312 C 485.167969 195.445312 486.15625 195.898438 486.832031 196.785156 C 487.53125 197.679688 487.882812 198.957031 487.882812 200.621094 L 487.882812 209.125 L 484.410156 209.125 L 484.410156 201.597656 C 484.410156 199.238281 483.730469 198.050781 482.382812 198.050781 C 481.703125 198.050781 481.152344 198.394531 480.71875 199.066406 C 480.285156 199.714844 480.039062 200.621094 479.992188 201.777344 L 479.992188 209.125 Z M 476.519531 209.125 " fill-opacity="1" fill-rule="nonzero"/><path fill="#f4f4f4" d="M 517.0625 209.378906 C 515.035156 209.378906 513.480469 208.789062 512.394531 207.605469 C 511.308594 206.402344 510.765625 204.65625 510.765625 202.359375 C 510.765625 200.140625 511.320312 198.441406 512.429688 197.253906 C 513.535156 196.050781 515.089844 195.445312 517.097656 195.445312 C 519.027344 195.445312 520.5 196.089844 521.515625 197.363281 C 522.527344 198.648438 523.035156 200.511719 523.035156 202.972656 L 523.035156 203.082031 L 514.457031 203.082031 C 514.457031 204.382812 514.691406 205.378906 515.179688 206.050781 C 515.660156 206.699219 516.347656 207.027344 517.242188 207.027344 C 518.472656 207.027344 519.242188 206.5 519.558594 205.433594 L 522.851562 205.722656 C 521.914062 208.164062 519.976562 209.378906 517.0625 209.378906 Z M 517.0625 197.652344 C 516.238281 197.652344 515.597656 197.941406 515.144531 198.523438 C 514.710938 199.082031 514.476562 199.878906 514.457031 200.910156 L 519.667969 200.910156 C 519.597656 199.824219 519.324219 199.019531 518.871094 198.484375 C 518.4375 197.933594 517.832031 197.652344 517.0625 197.652344 Z M 517.0625 197.652344 " fill-opacity="1" fill-rule="nonzero"/><path fill="#f4f4f4" d="M 554.71875 209.125 L 554.71875 201.597656 C 554.71875 199.238281 553.921875 198.050781 552.332031 198.050781 C 551.480469 198.050781 550.792969 198.414062 550.269531 199.136719 C 549.761719 199.859375 549.507812 200.792969 549.507812 201.921875 L 549.507812 209.125 L 546.035156 209.125 L 546.035156 198.703125 C 546.035156 197.980469 546.015625 197.390625 545.996094 196.929688 C 545.96875 196.476562 545.945312 196.0625 545.925781 195.699219 L 549.253906 195.699219 C 549.273438 195.871094 549.308594 196.296875 549.363281 196.964844 C 549.410156 197.644531 549.4375 198.113281 549.4375 198.378906 L 549.472656 198.378906 C 549.953125 197.347656 550.539062 196.59375 551.246094 196.132812 C 551.941406 195.679688 552.78125 195.445312 553.777344 195.445312 C 555.199219 195.445312 556.285156 195.898438 557.035156 196.785156 C 557.804688 197.652344 558.191406 198.9375 558.191406 200.621094 L 558.191406 209.125 Z M 554.71875 209.125 " fill-opacity="1" fill-rule="nonzero"/><path fill="#f4f4f4" d="M 585.332031 209.34375 C 584.292969 209.34375 583.496094 209.070312 582.945312 208.507812 C 582.410156 207.957031 582.148438 207.117188 582.148438 205.976562 L 582.148438 198.050781 L 580.449219 198.050781 L 580.449219 195.699219 L 582.292969 195.699219 L 583.378906 192.550781 L 585.585938 192.550781 L 585.585938 195.699219 L 588.121094 195.699219 L 588.121094 198.050781 L 585.585938 198.050781 L 585.585938 205.035156 C 585.585938 205.6875 585.703125 206.175781 585.949219 206.484375 C 586.183594 206.800781 586.570312 206.953125 587.105469 206.953125 C 587.367188 206.953125 587.757812 206.898438 588.265625 206.773438 L 588.265625 208.945312 C 587.414062 209.207031 586.4375 209.34375 585.332031 209.34375 Z M 585.332031 209.34375 " fill-opacity="1" fill-rule="nonzero"/><path fill="#f4f4f4" d="M 178.421875 156.140625 L 221.3125 156.140625 L 221.3125 146.632812 L 178.421875 146.632812 C 176.414062 146.632812 174.730469 145.011719 174.730469 142.824219 L 174.730469 125.6875 C 174.730469 123.5 176.414062 121.871094 178.421875 121.871094 L 221.3125 121.871094 L 221.3125 112.371094 L 178.421875 112.371094 C 169.917969 112.371094 164.28125 118.125 164.28125 125.191406 L 164.28125 143.320312 C 164.28125 150.386719 169.917969 156.140625 178.421875 156.140625 Z M 178.421875 156.140625 " fill-opacity="1" fill-rule="nonzero"/><path fill="#f4f4f4" d="M 243.332031 156.140625 L 272.089844 156.140625 C 280.59375 156.140625 286.222656 150.386719 286.222656 142.824219 L 286.222656 125.6875 C 286.222656 118.125 280.59375 112.371094 272.089844 112.371094 L 243.332031 112.371094 C 234.828125 112.371094 229.191406 118.125 229.191406 125.6875 L 229.191406 142.824219 C 229.191406 150.386719 234.828125 156.140625 243.332031 156.140625 Z M 239.640625 142.824219 L 239.640625 125.6875 C 239.640625 123.5 241.320312 121.871094 243.332031 121.871094 L 272.089844 121.871094 C 274.089844 121.871094 275.78125 123.5 275.78125 125.6875 L 275.78125 142.824219 C 275.78125 145.011719 274.089844 146.632812 272.089844 146.632812 L 243.332031 146.632812 C 241.320312 146.632812 239.640625 145.011719 239.640625 142.824219 Z M 239.640625 142.824219 " fill-opacity="1" fill-rule="nonzero"/><path fill="#f4f4f4" d="M 294.097656 156.140625 L 332.121094 156.140625 L 332.121094 146.632812 L 318.363281 146.632812 L 318.363281 121.871094 L 332.121094 121.871094 L 332.121094 112.371094 L 294.097656 112.371094 L 294.097656 121.871094 L 307.859375 121.871094 L 307.859375 146.632812 L 294.097656 146.632812 Z M 294.097656 156.140625 " fill-opacity="1" fill-rule="nonzero"/><path fill="#f4f4f4" d="M 339.996094 125.6875 L 339.996094 156.140625 L 350.445312 156.140625 L 350.445312 125.6875 C 350.445312 123.5 352.128906 121.871094 354.136719 121.871094 L 382.898438 121.871094 C 384.898438 121.871094 386.589844 123.5 386.589844 125.6875 L 386.589844 156.140625 L 397.027344 156.140625 L 397.027344 125.6875 C 397.027344 118.125 391.402344 112.371094 382.898438 112.371094 L 354.136719 112.371094 C 345.632812 112.371094 339.996094 118.125 339.996094 125.6875 Z M 339.996094 125.6875 " fill-opacity="1" fill-rule="nonzero"/><path fill="#f4f4f4" d="M 482.195312 156.140625 L 497.203125 156.140625 C 505.707031 156.140625 511.335938 150.386719 511.335938 142.824219 L 511.335938 112.371094 L 500.894531 112.371094 L 500.894531 142.824219 C 500.894531 145.011719 499.210938 146.632812 497.203125 146.632812 L 482.195312 146.632812 C 480.195312 146.632812 478.574219 145.011719 478.574219 142.824219 L 478.574219 112.371094 L 468.0625 112.371094 L 468.0625 142.824219 C 468.0625 145.011719 466.445312 146.632812 464.4375 146.632812 L 449.4375 146.632812 C 447.425781 146.632812 445.746094 145.011719 445.746094 142.824219 L 445.746094 112.371094 L 435.296875 112.371094 L 435.296875 142.824219 C 435.296875 150.386719 440.933594 156.140625 449.4375 156.140625 L 464.4375 156.140625 C 467.945312 156.140625 471.003906 155.136719 473.320312 153.453125 C 475.636719 155.136719 478.695312 156.140625 482.195312 156.140625 Z M 482.195312 156.140625 " fill-opacity="1" fill-rule="nonzero"/><path fill="#f4f4f4" d="M 521.464844 125.6875 L 518.589844 156.140625 L 529.039062 156.140625 L 530.65625 138.941406 L 563.550781 138.941406 L 565.179688 156.140625 L 575.621094 156.140625 L 572.742188 125.6875 C 572.054688 118.125 567.179688 112.371094 558.675781 112.371094 L 535.542969 112.371094 C 527.03125 112.371094 522.152344 118.125 521.464844 125.6875 Z M 531.535156 129.441406 L 531.914062 125.6875 C 532.097656 123.5 533.535156 121.871094 535.542969 121.871094 L 558.675781 121.871094 C 560.675781 121.871094 562.113281 123.5 562.304688 125.6875 L 562.675781 129.441406 Z M 531.535156 129.441406 " fill-opacity="1" fill-rule="nonzero"/><path fill="#f4f4f4" d="M 597.011719 156.140625 L 639.902344 156.140625 L 639.902344 146.632812 L 597.011719 146.632812 C 595.003906 146.632812 593.320312 145.011719 593.320312 142.824219 L 593.320312 112.371094 L 582.871094 112.371094 L 582.871094 143.320312 C 582.871094 150.386719 588.507812 156.140625 597.011719 156.140625 Z M 597.011719 156.140625 " fill-opacity="1" fill-rule="nonzero"/><path fill="#f4f4f4" d="M 661.917969 156.140625 L 704.8125 156.140625 L 704.8125 146.632812 L 661.917969 146.632812 C 659.910156 146.632812 658.230469 145.011719 658.230469 142.824219 L 658.230469 112.371094 L 647.78125 112.371094 L 647.78125 143.320312 C 647.78125 150.386719 653.414062 156.140625 661.917969 156.140625 Z M 661.917969 156.140625 " fill-opacity="1" fill-rule="nonzero"/><path fill="#f4f4f4" d="M 726.828125 156.140625 L 769.71875 156.140625 L 769.71875 146.632812 L 726.828125 146.632812 C 724.820312 146.632812 723.136719 145.011719 723.136719 142.824219 L 723.136719 138.941406 L 750.710938 138.941406 L 750.710938 129.441406 L 723.136719 129.441406 L 723.136719 125.6875 C 723.136719 123.5 724.820312 121.871094 726.828125 121.871094 L 769.71875 121.871094 L 769.71875 112.371094 L 726.828125 112.371094 C 718.324219 112.371094 712.6875 118.125 712.6875 125.191406 L 712.6875 143.320312 C 712.6875 150.386719 718.324219 156.140625 726.828125 156.140625 Z M 726.828125 156.140625 " fill-opacity="1" fill-rule="nonzero"/><path fill="#f4f4f4" d="M 777.597656 121.871094 L 800.863281 121.871094 L 800.863281 156.140625 L 811.367188 156.140625 L 811.367188 121.871094 L 834.628906 121.871094 L 834.628906 112.371094 L 777.597656 112.371094 Z M 777.597656 121.871094 " fill-opacity="1" fill-rule="nonzero"/></svg>